<?xml version="1.0" encoding="UTF-8" standalone="no"?>
<!-- Created with Inkscape (http://www.inkscape.org/) -->

<svg
   width="32"
   height="32"
   viewBox="0 0 32 32"
   version="1.1"
   id="svg1"
   inkscape:version="1.3.2 (091e20e, 2023-11-25, custom)"
   sodipodi:docname="SWR_Ticket_Icon.svg"
   inkscape:export-filename="Pictures\SWR_Ticket_Icon3_64.png"
   inkscape:export-xdpi="194.16809"
   inkscape:export-ydpi="194.16809"
   xmlns:inkscape="http://www.inkscape.org/namespaces/inkscape"
   xmlns:sodipodi="http://sodipodi.sourceforge.net/DTD/sodipodi-0.dtd"
   xmlns:xlink="http://www.w3.org/1999/xlink"
   xmlns="http://www.w3.org/2000/svg"
   xmlns:svg="http://www.w3.org/2000/svg">
  <sodipodi:namedview
     id="namedview1"
     pagecolor="#505050"
     bordercolor="#ffffff"
     borderopacity="1"
     inkscape:showpageshadow="0"
     inkscape:pageopacity="0"
     inkscape:pagecheckerboard="1"
     inkscape:deskcolor="#505050"
     inkscape:document-units="px"
     inkscape:zoom="18.473165"
     inkscape:cx="12.585824"
     inkscape:cy="19.677191"
     inkscape:window-width="1920"
     inkscape:window-height="1009"
     inkscape:window-x="1912"
     inkscape:window-y="-8"
     inkscape:window-maximized="1"
     inkscape:current-layer="g2" />
  <defs
     id="defs1">
    <linearGradient
       id="linearGradient14"
       inkscape:collect="always">
      <stop
         style="stop-color:#96e42c;stop-opacity:1;"
         offset="0"
         id="stop14" />
      <stop
         style="stop-color:#446c0e;stop-opacity:1;"
         offset="1"
         id="stop15" />
    </linearGradient>
    <linearGradient
       inkscape:collect="always"
       xlink:href="#linearGradient14"
       id="linearGradient15"
       x1="4.8632846"
       y1="18.760168"
       x2="33.366237"
       y2="18.760168"
       gradientUnits="userSpaceOnUse" />
  </defs>
  <g
     inkscape:label="Layer 1"
     inkscape:groupmode="layer"
     id="layer1">
    <g
       id="g2"
       transform="matrix(0.9795621,0,0,0.9795621,-0.82967122,-0.40555577)">
      <path
         style="fill:#66aacc;fill-opacity:1;stroke:none;stroke-width:0.584035;stroke-opacity:1"
         id="path1"
         sodipodi:type="arc"
         sodipodi:cx="6.8855929"
         sodipodi:cy="23.03474"
         sodipodi:rx="15.746678"
         sodipodi:ry="15.746678"
         sodipodi:start="0"
         sodipodi:end="6.2811735"
         sodipodi:arc-type="arc"
         d="M 22.632271,23.03474 A 15.746678,15.746678 0 0 1 6.8935128,38.781417 15.746678,15.746678 0 0 1 -8.8610774,23.05058 15.746678,15.746678 0 0 1 6.8618335,7.28808 15.746678,15.746678 0 0 1 22.632239,23.003061"
         sodipodi:open="true"
         transform="matrix(-0.46195407,0.88690385,0.88690385,0.46195407,0,0)" />
      <path
         style="fill:#132d3a;fill-opacity:1;stroke:none;stroke-width:0.567638;stroke-opacity:1"
         id="path2"
         sodipodi:type="arc"
         sodipodi:cx="-17.248774"
         sodipodi:cy="16.747847"
         sodipodi:rx="15.304582"
         sodipodi:ry="15.304582"
         sodipodi:start="5.2586953"
         sodipodi:end="2.680527"
         sodipodi:arc-type="arc"
         d="M -9.2975121,3.6708569 A 15.304582,15.304582 0 0 1 -2.2820667,19.945956 15.304582,15.304582 0 0 1 -15.336503,31.932492 15.304582,15.304582 0 0 1 -30.955234,23.556897"
         sodipodi:open="true"
         transform="scale(-1,1)" />
      <path
         style="fill:url(#linearGradient15);fill-opacity:1;stroke:#132d39;stroke-width:0.476675;stroke-opacity:1"
         d="m 33.245679,21.590813 c 0.39633,0.587528 -9.254184,11.36351 -10.221427,11.23016 C 21.932119,32.670405 6.0653792,16.452645 5.3628022,14.908171 4.9868352,14.081684 5.1273222,9.4145788 5.1273222,9.4145788 l 4.26768,-4.2072942 c 0,0 4.1343888,-0.5433792 5.5989658,-0.2372441 1.350933,0.2823805 17.213198,15.0812565 18.251711,16.6207725 z"
         id="path3"
         sodipodi:nodetypes="sssccss" />
      <path
         style="fill:none;fill-opacity:1;stroke:#66aacc;stroke-width:1.02086;stroke-linecap:round;stroke-dasharray:none;stroke-opacity:1"
         d="M 11.058556,10.73012 C 11.019005,-3.8246931 -3.7922033,2.3934919 4.7846332,10.623523"
         id="path4"
         sodipodi:nodetypes="cc" />
      <path
         style="fill:none;fill-opacity:1;stroke:#132c3a;stroke-width:1.02086;stroke-linecap:round;stroke-dasharray:none;stroke-opacity:1"
         d="M 11.054342,10.761276 C 11.898983,-5.7277083 -5.3437545,2.4799093 4.8356803,11.096775"
         id="path4-3"
         sodipodi:nodetypes="cc" />
      <path
         style="fill:none;fill-opacity:1;stroke:#132d39;stroke-width:1.02086;stroke-linecap:round;stroke-dasharray:none;stroke-opacity:1"
         id="path5"
         sodipodi:type="arc"
         sodipodi:cx="-10.971642"
         sodipodi:cy="11.416697"
         sodipodi:rx="2.0124216"
         sodipodi:ry="2.0124216"
         sodipodi:start="5.5973856"
         sodipodi:end="4.251343"
         sodipodi:open="true"
         sodipodi:arc-type="arc"
         d="m -9.4142026,10.142246 a 2.0124216,2.0124216 0 0 1 0.1597904,2.323719 2.0124216,2.0124216 0 0 1 -2.1406258,0.91811 2.0124216,2.0124216 0 0 1 -1.57344,-1.717408 2.0124216,2.0124216 0 0 1 1.10154,-2.0522704"
         transform="matrix(-0.99961554,0.02772687,0.02772687,0.99961554,0,0)" />
      <path
         style="fill:none;fill-opacity:1;stroke:#132d39;stroke-width:1.02086;stroke-linecap:round;stroke-dasharray:none;stroke-opacity:1"
         d="M 28.698084,23.429867 16.350023,11.824252"
         id="path6" />
      <path
         style="fill:none;fill-opacity:1;stroke:#132d39;stroke-width:1.02086;stroke-linecap:round;stroke-dasharray:none;stroke-opacity:1"
         d="M 24.7343,27.579262 15.590483,18.943434"
         id="path6-4"
         sodipodi:nodetypes="cc" />
    </g>
  </g>
</svg>
